<svg xmlns="http://www.w3.org/2000/svg" viewBox="0 0 880 510" width="880" height="510" role="img"><style>
  .s{fill:var(--surface)}
  text{font-family:-apple-system,BlinkMacSystemFont,'Segoe UI',Helvetica,Arial,sans-serif}
  .ti{fill:var(--ink);font-size:17px;font-weight:600}
  .sub{fill:var(--ink2);font-size:12.5px}
  .ax{fill:var(--ink2);font-size:11.5px}
  .axt{fill:var(--ink2);font-size:11.5px;font-weight:600}
  .grid{stroke:var(--rule);stroke-width:1}
  .zero{stroke:var(--rule2);stroke-width:1.5}
  .note{fill:var(--ink2);font-size:11px}
  .stat{fill:var(--ink);font-size:12px}
  .statk{fill:var(--ink2);font-size:12px}
  .pt1{fill:var(--s1);stroke:var(--surface);stroke-width:1.5}
  .pt2{fill:var(--s2);stroke:var(--surface);stroke-width:1.5}
  .fit1{fill:none;stroke:var(--s1);stroke-width:2}
  .fit2{fill:none;stroke:var(--s2);stroke-width:2}
  .band{fill:var(--s2);opacity:0.12}
  .lab1{fill:var(--s1);font-size:12.5px;font-weight:600}
  .lab2{fill:var(--s2);font-size:12.5px;font-weight:600}
  :root{--surface:#fcfcfb;--ink:#0b0b0b;--ink2:#52514e;--rule:#e7e6e2;--rule2:#a9a8a2;
        --s1:#2a78d6;--s2:#eb6834}
  @media (prefers-color-scheme:dark){:root{
        --surface:#1a1a19;--ink:#ffffff;--ink2:#c3c2b7;--rule:#2e2e2c;--rule2:#6a6a64;
        --s1:#3987e5;--s2:#d95926}}
</style><rect width="880" height="510" class="s"/><text x="74" y="26" class="ti">In changes there is nothing there</text><text x="74" y="45" class="sub">ETH’s monthly return against the same month’s change in staking APR.</text><line x1="74" y1="402.0" x2="670" y2="402.0" class="grid"/><text x="65" y="406.0" class="ax" text-anchor="end">-35%</text><line x1="74" y1="316.0" x2="670" y2="316.0" class="grid"/><text x="65" y="320.0" class="ax" text-anchor="end">-12%</text><line x1="74" y1="230.0" x2="670" y2="230.0" class="grid"/><text x="65" y="234.0" class="ax" text-anchor="end">+12%</text><line x1="74" y1="144.0" x2="670" y2="144.0" class="grid"/><text x="65" y="148.0" class="ax" text-anchor="end">+35%</text><line x1="74" y1="58.0" x2="670" y2="58.0" class="grid"/><text x="65" y="62.0" class="ax" text-anchor="end">+59%</text><text x="74.0" y="422.0" class="ax" text-anchor="middle">-29</text><text x="223.0" y="422.0" class="ax" text-anchor="middle">-20</text><text x="372.0" y="422.0" class="ax" text-anchor="middle">-12</text><text x="521.0" y="422.0" class="ax" text-anchor="middle">-3</text><text x="670.0" y="422.0" class="ax" text-anchor="middle">+5</text><text x="372" y="444" class="axt" text-anchor="middle">Change in staking APR (basis points)</text><text x="18" y="230" class="axt" text-anchor="middle" transform="rotate(-90 18 230)">ETH monthly return (%)</text><line x1="74" y1="272.3" x2="670" y2="272.3" class="zero"/><line x1="578.4" y1="58" x2="578.4" y2="402" class="zero"/><polygon points="74.0,182.6 670.0,204.9 670.0,337.1 74.0,314.9" class="band"/><line x1="74.0" y1="248.8" x2="670.0" y2="271.0" class="fit2"/><circle cx="368.8" cy="257.0" r="4.5" class="pt2"/><circle cx="458.9" cy="236.4" r="4.5" class="pt2"/><circle cx="618.8" cy="248.7" r="4.5" class="pt2"/><circle cx="115.1" cy="274.0" r="4.5" class="pt2"/><circle cx="325.9" cy="281.6" r="4.5" class="pt2"/><circle cx="396.6" cy="270.6" r="4.5" class="pt2"/><circle cx="435.1" cy="303.0" r="4.5" class="pt2"/><circle cx="482.1" cy="280.4" r="4.5" class="pt2"/><circle cx="500.4" cy="241.3" r="4.5" class="pt2"/><circle cx="512.5" cy="227.9" r="4.5" class="pt2"/><circle cx="552.0" cy="225.0" r="4.5" class="pt2"/><circle cx="522.0" cy="263.8" r="4.5" class="pt2"/><circle cx="424.5" cy="111.2" r="4.5" class="pt2"/><circle cx="516.2" cy="258.6" r="4.5" class="pt2"/><circle cx="545.0" cy="302.7" r="4.5" class="pt2"/><circle cx="567.1" cy="211.8" r="4.5" class="pt2"/><circle cx="533.5" cy="308.9" r="4.5" class="pt2"/><circle cx="519.0" cy="282.6" r="4.5" class="pt2"/><circle cx="560.0" cy="356.2" r="4.5" class="pt2"/><circle cx="554.9" cy="253.1" r="4.5" class="pt2"/><circle cx="559.8" cy="272.4" r="4.5" class="pt2"/><circle cx="595.7" cy="143.1" r="4.5" class="pt2"/><circle cx="610.7" cy="296.6" r="4.5" class="pt2"/><circle cx="593.9" cy="284.6" r="4.5" class="pt2"/><circle cx="587.7" cy="378.3" r="4.5" class="pt2"/><circle cx="539.0" cy="351.4" r="4.5" class="pt2"/><circle cx="584.2" cy="273.9" r="4.5" class="pt2"/><circle cx="558.8" cy="124.3" r="4.5" class="pt2"/><circle cx="502.0" cy="276.0" r="4.5" class="pt2"/><circle cx="534.7" cy="81.7" r="4.5" class="pt2"/><circle cx="546.4" cy="218.0" r="4.5" class="pt2"/><circle cx="617.2" cy="285.6" r="4.5" class="pt2"/><circle cx="492.3" cy="308.1" r="4.5" class="pt2"/><circle cx="628.9" cy="350.4" r="4.5" class="pt2"/><circle cx="575.0" cy="275.0" r="4.5" class="pt2"/><circle cx="337.5" cy="305.0" r="4.5" class="pt2"/><circle cx="565.3" cy="376.7" r="4.5" class="pt2"/><circle cx="547.1" cy="254.8" r="4.5" class="pt2"/><circle cx="516.7" cy="230.9" r="4.5" class="pt2"/><circle cx="575.7" cy="309.9" r="4.5" class="pt2"/><circle cx="552.4" cy="346.8" r="4.5" class="pt2"/><circle cx="543.7" cy="202.2" r="4.5" class="pt2"/><text x="692" y="72" class="lab2">OLS fit</text><text x="692" y="96" class="statk">n</text><text x="850" y="96" class="stat" text-anchor="end">42</text><text x="692" y="115" class="statk">slope</text><text x="850" y="115" class="stat" text-anchor="end">-0.18</text><text x="692" y="134" class="statk">95% CI</text><text x="850" y="134" class="stat" text-anchor="end">[-1.2, +0.87]</text><text x="692" y="153" class="statk">t</text><text x="850" y="153" class="stat" text-anchor="end">-0.35</text><text x="692" y="172" class="statk">p</text><text x="850" y="172" class="stat" text-anchor="end">0.73</text><text x="692" y="191" class="statk">R²</text><text x="850" y="191" class="stat" text-anchor="end">0.003</text><text x="692" y="210" class="statk">r</text><text x="850" y="210" class="stat" text-anchor="end">-0.055</text><text x="74" y="468" class="note">Differencing removes the shared trend. The slope is statistically indistinguishable from zero (p=0.73) and yield</text><text x="74" y="483" class="note">changes explain 0.3% of the variance in ETH’s return. Shaded band = ±1 residual SD.</text></svg>